<?xml version="1.0" standalone="no"?>
<!DOCTYPE svg PUBLIC "-//W3C//DTD SVG 20010904//EN"
 "http://www.w3.org/TR/2001/REC-SVG-20010904/DTD/svg10.dtd">
<svg version="1.0" xmlns="http://www.w3.org/2000/svg"
 width="256.000000pt" height="256.000000pt" viewBox="0 0 256.000000 256.000000"
 preserveAspectRatio="xMidYMid meet">

<g transform="translate(0.000000,256.000000) scale(0.100000,-0.100000)"
fill="#000000" stroke="none">
<path d="M680 2549 c-168 -7 -273 -21 -401 -54 -117 -31 -139 -55 -48 -55 27
0 93 -5 146 -11 68 -7 99 -7 106 0 21 21 66 13 83 -14 34 -52 -31 -111 -76
-70 -20 18 -20 17 -20 -19 0 -49 30 -91 75 -106 47 -15 86 -5 121 31 23 24 28
38 28 79 0 40 3 50 16 50 9 0 86 -17 172 -38 150 -37 157 -40 195 -80 39 -41
54 -46 116 -42 31 2 41 -17 78 -137 16 -51 27 -68 52 -83 74 -45 150 -11 178
79 6 21 7 17 8 -21 1 -70 7 -78 42 -66 16 5 39 23 52 39 l22 28 96 -64 c53
-36 118 -84 145 -108 l48 -44 -22 -28 c-29 -37 -30 -102 -2 -138 36 -45 104
-54 156 -20 21 13 24 11 53 -40 42 -74 86 -183 100 -246 6 -29 11 -98 11 -154
0 -147 -34 -260 -111 -373 -23 -34 -32 -41 -54 -36 -39 7 -68 -24 -62 -65 5
-27 0 -37 -32 -66 -85 -77 -221 -157 -361 -212 -100 -40 -278 -94 -314 -96
-16 -1 -17 -2 -4 -6 10 -2 57 3 105 12 472 86 884 384 1010 729 34 93 46 165
48 296 2 127 4 139 28 177 68 107 104 248 92 358 -44 384 -374 582 -795 476
l-115 -29 -60 25 c-100 42 -251 91 -350 113 -91 19 -290 41 -350 38 -16 0
-109 -4 -205 -9z"/>
<path d="M252 2078 c-31 -31 0 -98 46 -98 22 0 52 34 52 61 0 38 -70 65 -98
37z"/>
<path d="M124 1140 c-23 -9 -94 -76 -94 -88 0 -4 29 -6 64 -4 l64 4 -11 29
c-9 22 -9 34 1 49 13 22 9 23 -24 10z"/>
<path d="M10 920 c0 -43 33 -131 69 -183 29 -43 95 -111 135 -140 19 -14 17
-18 -46 -93 -159 -192 -192 -286 -138 -394 22 -42 42 -61 97 -89 139 -70 286
48 406 324 51 117 53 125 27 125 -34 0 -67 28 -85 72 -15 39 -15 45 0 85 10
26 27 49 43 58 25 13 22 14 -54 15 -65 0 -84 4 -97 18 -32 35 -15 82 33 97 18
6 19 9 6 33 -8 15 -27 41 -43 58 -27 31 -30 32 -95 27 -59 -5 -65 -7 -53 -20
19 -19 19 -67 0 -83 -8 -7 -26 -12 -40 -12 -14 0 -32 5 -40 12 -20 16 -19 64
1 84 14 15 11 16 -36 16 -28 0 -60 5 -71 10 -17 10 -19 7 -19 -20z"/>
<path d="M560 710 c-13 -8 -12 -10 3 -10 9 0 17 5 17 10 0 12 -1 12 -20 0z"/>
</g>
</svg>
