<svg version="1.1" id="Layer_1" xmlns="http://www.w3.org/2000/svg" xmlns:xlink="http://www.w3.org/1999/xlink" x="0px" y="0px"
	 width="100%" viewBox="0 0 256 256" enable-background="new 0 0 256 256" xml:space="preserve">
<path fill="#FFFFFF" opacity="1.000000" stroke="none" 
	d="
M257.000000,80.000000 
	C257.000000,138.936539 257.000000,197.873062 257.000000,257.000000 
	C180.645874,257.000000 104.291595,257.000000 27.602402,256.646362 
	C33.058235,255.610657 36.541122,251.662781 39.923557,247.480255 
	C48.718769,236.604614 55.133930,224.489105 59.459076,211.224792 
	C71.852448,214.563995 83.921936,217.769287 96.207977,221.263428 
	C100.656464,221.672409 104.888412,221.792557 109.549553,221.930222 
	C115.367859,221.594452 120.756973,221.241150 126.486572,221.082626 
	C128.992371,221.170944 131.167099,221.158417 133.321503,220.942963 
	C148.669296,219.408035 163.077698,214.603683 177.050034,208.297592 
	C191.838394,201.623230 205.550934,193.151138 217.145386,181.823395 
	C222.812988,176.286179 227.074524,169.309799 232.269836,162.831558 
	C233.344971,161.110687 234.122757,159.543060 235.216614,157.816711 
	C240.625366,147.415924 244.748489,136.879532 244.940048,125.230255 
	C245.056168,118.168297 245.004486,111.103584 245.358246,103.907318 
	C249.458893,95.849678 253.229446,87.924843 257.000000,80.000000 
z"/>
<path fill="#FFFFFF" opacity="1.000000" stroke="none" 
	d="
M1.000003,155.000000 
	C1.000000,118.979103 1.000000,82.958214 1.306551,46.684402 
	C13.641550,99.386566 55.624283,117.548271 101.574455,117.743538 
	C123.377998,117.183128 142.022400,124.579865 159.124298,137.349121 
	C163.513489,139.820511 163.767227,143.236893 162.382126,147.221329 
	C161.846283,148.762726 161.441650,150.349731 160.657257,152.061646 
	C155.114822,154.381134 151.930771,158.015945 151.585083,163.983887 
	C140.368774,172.294861 127.916786,177.160522 114.749405,179.902634 
	C102.524574,182.448471 90.133133,184.338516 77.732948,185.838684 
	C71.287285,186.618469 64.664207,185.931900 58.217789,185.569824 
	C58.581718,183.292297 59.636993,181.026672 58.990898,179.464935 
	C54.175480,167.825195 47.354824,157.577332 38.324749,148.591492 
	C31.834269,142.132812 24.752823,139.731140 15.668917,141.475082 
	C9.581192,143.656723 4.954948,146.976212 2.613949,153.194260 
	C1.903798,153.888947 1.451901,154.444473 1.000003,155.000000 
z"/>
<path fill="#0D87E3" opacity="1.000000" stroke="none" 
	d="
M245.028168,104.040108 
	C245.004486,111.103584 245.056168,118.168297 244.940048,125.230255 
	C244.748489,136.879532 240.625366,147.415924 234.919556,157.661850 
	C233.159683,156.278091 232.268356,154.246399 230.801971,153.664948 
	C228.945984,152.929001 225.862488,152.503967 224.691971,153.527359 
	C223.220917,154.813492 222.131699,158.002731 222.674286,159.840240 
	C224.086624,164.623077 228.018646,164.382065 231.972488,162.984818 
	C227.074524,169.309799 222.812988,176.286179 217.145386,181.823395 
	C205.550934,193.151138 191.838394,201.623230 177.050034,208.297592 
	C163.077698,214.603683 148.669296,219.408035 133.321503,220.942963 
	C131.167099,221.158417 128.992371,221.170944 126.685898,220.776154 
	C153.596786,214.418076 178.899628,204.825790 200.254181,185.998627 
	C203.448288,185.785995 206.860245,186.372604 208.814972,184.952850 
	C210.087906,184.028305 209.275040,180.186005 209.320480,177.649475 
	C209.332001,177.007263 209.052582,176.359848 208.973633,175.383682 
	C216.952133,163.935013 221.323471,151.550827 222.661041,138.030334 
	C223.566772,138.447098 224.150238,139.119156 224.676697,139.077148 
	C227.212509,138.874725 230.300079,139.225494 232.057755,137.888733 
	C233.213287,137.009933 233.273651,133.149139 232.342102,131.424286 
	C230.892944,128.740967 227.919846,128.331635 225.009018,129.959320 
	C224.160706,130.433685 223.190338,130.689774 222.175522,130.627686 
	C220.800903,115.802238 215.718353,102.831322 207.610046,90.984695 
	C198.926544,94.778572 193.959061,94.451279 190.107101,89.973053 
	C186.170639,85.396637 186.575867,80.691940 192.140457,71.619072 
	C182.807831,64.935295 173.416275,58.209332 165.757065,52.724022 
	C160.016953,55.327572 156.011597,57.144287 152.028778,58.512970 
	C151.714767,54.731468 151.378220,51.397999 151.020325,47.648811 
	C150.636734,45.288353 150.459595,43.286549 149.880661,41.408604 
	C147.184860,32.663574 144.055359,24.068930 137.659973,17.240335 
	C132.981857,12.245344 126.959770,11.793296 122.006363,15.628662 
	C117.674240,18.982967 116.788696,24.995216 119.788025,30.525930 
	C120.567017,31.962372 121.276489,33.436520 121.635445,34.979607 
	C114.991852,36.673920 111.071281,35.090508 107.246223,29.756737 
	C106.379234,28.547796 104.940010,27.326132 103.548935,26.983028 
	C92.348053,24.220367 81.095627,21.666645 69.568710,18.879425 
	C66.305679,13.731532 61.836578,12.201755 55.890503,13.062111 
	C52.898682,13.787029 50.336002,14.536686 47.341923,15.235615 
	C41.293991,14.719335 35.669132,14.335369 30.063496,13.763106 
	C25.352280,13.282153 20.663450,12.581923 16.187254,11.709492 
	C26.379871,8.661041 36.309650,5.723274 46.338455,3.175249 
	C50.789223,2.044440 55.440006,1.700898 60.000000,1.000000 
	C75.687561,1.000000 91.375122,1.000000 107.721069,1.378031 
	C120.376282,4.451300 132.471680,6.780151 144.334763,9.972412 
	C152.060013,12.051215 159.447296,15.385920 167.166779,18.441599 
	C170.252228,20.147951 173.156906,21.570698 176.236450,23.280550 
	C178.693542,24.921024 181.006393,26.225588 183.253174,27.635458 
	C201.804504,39.276630 218.849167,52.646076 230.771469,71.389610 
	C235.112320,78.214050 238.380386,85.720856 242.130402,93.311569 
	C243.091309,97.151253 244.059738,100.595680 245.028168,104.040108 
M176.000153,49.169071 
	C177.200424,55.069374 180.824280,58.550209 186.215546,58.981285 
	C190.909012,59.356564 196.612946,55.700737 197.950623,51.407215 
	C199.470123,46.530109 198.526001,42.339222 194.488571,38.966667 
	C191.015015,36.065128 187.298340,35.084641 182.990097,36.979630 
	C178.013367,39.168636 175.384735,42.734642 176.000153,49.169071 
M199.031570,75.770744 
	C199.308640,77.047081 199.219070,79.128647 199.929916,79.452301 
	C202.282990,80.523697 205.236343,81.950684 207.343948,81.286964 
	C208.703476,80.858826 210.099915,76.590240 209.433014,74.809235 
	C208.779175,73.063148 205.615967,71.618134 203.394714,71.347122 
	C202.146255,71.194786 200.575378,73.685081 199.031570,75.770744 
z"/>
<path fill="#99CEFA" opacity="1.000000" stroke="none" 
	d="
M15.964711,11.978768 
	C20.663450,12.581923 25.352280,13.282153 30.063496,13.763106 
	C35.669132,14.335369 41.293991,14.719335 47.407257,15.640293 
	C47.946758,18.043930 47.989525,19.992159 47.973625,22.367252 
	C47.268185,28.245485 49.506275,32.288452 54.307251,34.657639 
	C58.337223,36.646351 62.407242,36.176357 66.057877,33.417164 
	C71.062607,29.634529 71.305466,24.556808 69.858955,19.049084 
	C81.095627,21.666645 92.348053,24.220367 103.548935,26.983028 
	C104.940010,27.326132 106.379234,28.547796 107.246223,29.756737 
	C111.071281,35.090508 114.991852,36.673920 121.905533,35.204620 
	C123.972641,38.914318 125.387222,42.485260 126.431763,46.036842 
	C119.606247,44.370018 117.020454,46.303860 116.993774,52.806408 
	C116.987656,54.298435 116.902618,55.798801 117.024551,57.281296 
	C117.826073,67.026321 113.326996,74.054832 105.756699,79.566147 
	C99.234100,84.314713 99.107841,86.873978 104.862457,92.509315 
	C103.566963,93.477905 102.498009,94.244102 101.342751,94.844116 
	C92.197327,99.593964 91.383293,108.791023 99.500984,115.355194 
	C100.208313,115.927155 100.588478,116.903709 101.120605,117.692337 
	C55.624283,117.548271 13.641550,99.386566 1.306551,46.215744 
	C1.000000,39.978848 1.000000,33.957695 1.367775,27.479092 
	C5.855648,30.978065 9.975745,34.934490 13.683692,38.920128 
	C9.884366,38.585152 6.699141,39.889221 6.443972,43.115929 
	C6.270249,45.312733 8.701630,47.748737 10.061688,50.021797 
	C10.945385,51.498718 12.762213,52.830261 12.848302,54.303635 
	C13.360484,63.069344 18.500309,67.893097 26.298695,70.026253 
	C28.530918,70.636856 32.141903,69.868881 33.648682,68.310112 
	C34.852528,67.064728 33.882389,63.656624 33.749008,61.215458 
	C33.706425,60.436161 33.253235,59.679295 33.131359,58.593491 
	C34.028275,55.642544 34.781757,53.010273 35.664848,49.959648 
	C35.897083,42.710934 33.192013,37.451187 27.415424,33.622791 
	C20.185289,28.831064 12.825647,24.025824 12.238256,13.997733 
	C13.677870,13.228058 14.821291,12.603413 15.964711,11.978768 
M50.616848,89.025620 
	C59.028408,90.683952 67.410835,92.518837 75.865837,93.913887 
	C79.256569,94.473343 81.593460,92.592117 82.018959,88.919952 
	C82.443573,85.255463 80.634346,83.284271 77.184067,82.592812 
	C76.052689,82.366074 74.910820,82.136368 73.763290,82.054276 
	C63.697441,81.334183 54.066292,79.484940 45.991524,72.701576 
	C43.126183,70.294487 39.809769,69.927994 37.246365,73.329323 
	C34.714291,76.689079 35.944126,79.708427 38.983879,81.891632 
	C42.474895,84.398949 46.233509,86.533669 50.616848,89.025620 
M81.877518,55.023094 
	C82.273849,51.834164 82.177422,48.336487 78.185951,48.247452 
	C75.912262,48.196735 72.587006,49.867889 71.615097,51.739735 
	C70.882652,53.150372 72.516937,56.953197 74.200668,58.191120 
	C76.945923,60.209499 79.891327,58.976009 81.877518,55.023094 
z"/>
<path fill="#FFFFFF" opacity="1.000000" stroke="none" 
	d="
M166.985992,18.157993 
	C159.447296,15.385920 152.060013,12.051215 144.334763,9.972412 
	C132.471680,6.780151 120.376282,4.451300 108.189728,1.378031 
	C157.561493,1.000000 207.122986,1.000000 257.000000,1.000000 
	C257.000000,20.019732 257.000000,39.041206 256.628113,58.375813 
	C253.749603,42.645325 246.224838,29.772364 232.270203,21.052839 
	C219.928757,13.341294 206.272888,11.386609 191.652664,12.086519 
	C189.836533,12.396174 188.402542,12.775810 186.562836,13.083227 
	C179.766739,14.726669 173.376373,16.442331 166.985992,18.157993 
z"/>
<path fill="#0027B7" opacity="1.000000" stroke="none" 
	d="
M186.968552,13.155445 
	C188.402542,12.775810 189.836533,12.396174 191.870422,12.334791 
	C196.505966,14.575959 199.240753,17.259863 198.506927,22.252378 
	C198.395630,23.009552 198.964508,24.187052 199.599365,24.679092 
	C202.644485,27.039246 205.498276,29.160707 209.633270,25.871267 
	C212.739441,23.400255 216.510544,23.838427 219.473984,26.968126 
	C222.537094,30.203077 222.871384,33.641243 220.192673,37.305664 
	C219.739517,37.925568 219.476929,38.684784 219.421768,38.794106 
	C221.312866,41.008369 222.885681,42.849945 224.406036,44.630112 
	C227.474838,42.043278 230.069672,39.429298 233.070175,37.421570 
	C238.237961,33.963673 244.292480,37.267918 245.064163,43.438644 
	C245.624329,47.918125 242.495499,49.987843 239.986313,52.532173 
	C234.808319,57.782692 234.791489,57.937508 240.349380,63.427422 
	C248.790314,57.734512 249.211426,57.748993 257.000000,64.000000 
	C257.000000,65.714355 257.000000,67.428719 256.729248,69.761269 
	C254.818466,72.248932 253.344070,74.305199 251.497986,75.942329 
	C248.980087,78.175247 248.818237,80.296135 250.005646,83.436531 
	C250.872528,85.729240 251.016693,88.970016 250.034332,91.128975 
	C248.560822,94.367302 245.116913,93.697365 242.137924,92.916328 
	C238.380386,85.720856 235.112320,78.214050 230.771469,71.389610 
	C218.849167,52.646076 201.804504,39.276630 183.253174,27.635458 
	C181.006393,26.225588 178.693542,24.921024 176.531799,23.139435 
	C180.091034,19.525957 183.529800,16.340700 186.968552,13.155445 
z"/>
<path fill="#0251D7" opacity="1.000000" stroke="none" 
	d="
M59.135201,211.090851 
	C55.133930,224.489105 48.718769,236.604614 39.923557,247.480255 
	C36.541122,251.662781 33.058235,255.610657 27.133745,256.646362 
	C23.307091,257.000000 19.614182,257.000000 15.533770,256.749725 
	C15.107149,256.330078 15.068031,256.160706 14.888613,255.746750 
	C14.398916,255.469818 14.049520,255.437485 13.657316,255.438324 
	C13.614509,255.471527 13.508900,255.495712 13.632565,255.106216 
	C12.437555,248.326385 14.290639,244.953186 19.837475,245.120178 
	C27.562857,245.352737 30.551363,240.222244 34.481037,233.985397 
	C29.632286,233.985397 25.805828,234.426315 22.140154,233.848022 
	C19.124517,233.372314 15.247542,232.436920 13.724900,230.299835 
	C12.518260,228.606308 14.301626,224.782440 14.829266,221.450180 
	C14.159739,218.947098 13.299021,215.729233 12.466009,212.511261 
	C12.493715,212.511169 12.548820,212.517044 12.857252,212.584747 
	C13.488921,212.153244 13.812159,211.654037 14.563241,211.111038 
	C17.842045,211.835709 20.970490,212.153870 23.380123,213.638611 
	C24.133478,214.102783 22.997108,217.722473 22.616199,219.878387 
	C22.517361,220.437790 22.005371,220.924210 21.346445,221.987473 
	C27.675913,221.987473 33.447903,222.180923 39.188835,221.844452 
	C40.537579,221.765396 42.286594,220.129089 42.910126,218.775543 
	C43.389889,217.734085 42.693588,215.841431 42.000244,214.623260 
	C39.190331,209.686417 33.856068,211.091309 29.553659,210.141464 
	C25.961994,209.348495 24.071121,207.222061 24.343933,204.056808 
	C24.617455,200.883331 26.798822,198.766663 30.530701,198.948685 
	C33.340511,199.085724 36.381599,199.526031 38.935467,198.676346 
	C42.714722,197.419006 45.345821,198.362091 47.914192,201.376526 
	C49.475864,207.515182 54.087696,209.561096 59.135201,211.090851 
z"/>
<path fill="#0D87E3" opacity="1.000000" stroke="none" 
	d="
M47.797791,201.035324 
	C45.345821,198.362091 42.714722,197.419006 38.935467,198.676346 
	C36.381599,199.526031 33.340511,199.085724 30.530701,198.948685 
	C26.798822,198.766663 24.617455,200.883331 24.343933,204.056808 
	C24.071121,207.222061 25.961994,209.348495 29.553659,210.141464 
	C33.856068,211.091309 39.190331,209.686417 42.000244,214.623260 
	C42.693588,215.841431 43.389889,217.734085 42.910126,218.775543 
	C42.286594,220.129089 40.537579,221.765396 39.188835,221.844452 
	C33.447903,222.180923 27.675913,221.987473 21.346445,221.987473 
	C22.005371,220.924210 22.517361,220.437790 22.616199,219.878387 
	C22.997108,217.722473 24.133478,214.102783 23.380123,213.638611 
	C20.970490,212.153870 17.842045,211.835709 14.527254,210.867981 
	C14.063424,210.668716 14.054764,210.179672 14.164305,209.855133 
	C17.249151,206.034134 20.224455,202.537674 23.261585,198.968552 
	C20.417601,196.683807 17.650131,194.685684 15.141779,192.402832 
	C7.864108,185.779465 3.851753,177.214523 1.000000,168.000000 
	C1.000000,166.285645 1.000000,164.571289 1.388123,162.459625 
	C6.192271,162.991333 10.608295,163.920364 13.676571,164.565857 
	C13.996387,167.768417 13.674788,171.135132 14.932541,173.738968 
	C15.402794,174.712509 20.192545,174.862671 21.898533,173.721893 
	C25.848654,171.080521 23.787794,167.462341 21.550062,164.289337 
	C36.117828,163.119629 39.063400,164.632751 42.773636,175.052383 
	C42.419277,175.298126 42.067589,175.723557 41.650074,175.803009 
	C38.112778,176.476028 35.593056,178.365829 36.141762,182.150940 
	C36.719814,186.138489 39.803928,187.189407 43.558102,187.045074 
	C47.704021,186.885681 51.860615,187.003860 55.851967,187.304718 
	C49.279377,189.861282 47.562435,194.874435 47.797791,201.035324 
z"/>
<path fill="#45A4F2" opacity="1.000000" stroke="none" 
	d="
M56.012558,187.001144 
	C51.860615,187.003860 47.704021,186.885681 43.558102,187.045074 
	C39.803928,187.189407 36.719814,186.138489 36.141762,182.150940 
	C35.593056,178.365829 38.112778,176.476028 41.650074,175.803009 
	C42.067589,175.723557 42.419277,175.298126 42.773636,175.052383 
	C39.063400,164.632751 36.117828,163.119629 21.550062,164.289337 
	C23.787794,167.462341 25.848654,171.080521 21.898533,173.721893 
	C20.192545,174.862671 15.402794,174.712509 14.932541,173.738968 
	C13.674788,171.135132 13.996387,167.768417 13.676571,164.565857 
	C10.608295,163.920364 6.192271,162.991333 1.388123,162.031158 
	C1.000000,159.958328 1.000000,157.916672 1.000003,155.437500 
	C1.451901,154.444473 1.903798,153.888947 3.062400,153.178131 
	C8.056701,152.559204 12.344296,152.095566 15.999352,151.700317 
	C15.999352,147.851120 15.999352,144.618500 15.999352,141.385880 
	C24.752823,139.731140 31.834269,142.132812 38.324749,148.591492 
	C47.354824,157.577332 54.175480,167.825195 58.990898,179.464935 
	C59.636993,181.026672 58.581718,183.292297 58.049171,185.839294 
	C57.193550,186.631485 56.603054,186.816315 56.012558,187.001144 
z"/>
<path fill="#004DD5" opacity="1.000000" stroke="none" 
	d="
M257.000000,63.583336 
	C249.211426,57.748993 248.790314,57.734512 240.349380,63.427422 
	C234.791489,57.937508 234.808319,57.782692 239.986313,52.532173 
	C242.495499,49.987843 245.624329,47.918125 245.064163,43.438644 
	C244.292480,37.267918 238.237961,33.963673 233.070175,37.421570 
	C230.069672,39.429298 227.474838,42.043278 224.406036,44.630112 
	C222.885681,42.849945 221.312866,41.008369 219.421768,38.794106 
	C219.476929,38.684784 219.739517,37.925568 220.192673,37.305664 
	C222.871384,33.641243 222.537094,30.203077 219.473984,26.968126 
	C216.510544,23.838427 212.739441,23.400255 209.633270,25.871267 
	C205.498276,29.160707 202.644485,27.039246 199.599365,24.679092 
	C198.964508,24.187052 198.395630,23.009552 198.506927,22.252378 
	C199.240753,17.259863 196.505966,14.575959 192.252563,12.404774 
	C206.272888,11.386609 219.928757,13.341294 232.270203,21.052839 
	C246.224838,29.772364 253.749603,42.645325 256.628113,58.844471 
	C257.000000,60.388889 257.000000,61.777779 257.000000,63.583336 
z"/>
<path fill="#0E87E3" opacity="1.000000" stroke="none" 
	d="
M12.438300,212.511368 
	C13.299021,215.729233 14.159739,218.947098 14.829266,221.450180 
	C14.301626,224.782440 12.518260,228.606308 13.724900,230.299835 
	C15.247542,232.436920 19.124517,233.372314 22.140154,233.848022 
	C25.805828,234.426315 29.632286,233.985397 34.481037,233.985397 
	C30.551363,240.222244 27.562857,245.352737 19.837475,245.120178 
	C14.290639,244.953186 12.437555,248.326385 13.319389,254.954224 
	C6.535442,253.453552 4.397566,247.612915 1.000000,243.000000 
	C1.000000,238.975449 1.000000,234.950912 1.343914,230.350037 
	C5.271318,224.019592 8.854808,218.265488 12.438300,212.511368 
z"/>
<path fill="#FFFFFF" opacity="1.000000" stroke="none" 
	d="
M12.466007,212.511261 
	C8.854808,218.265488 5.271318,224.019592 1.343914,229.886856 
	C1.000000,209.645767 1.000000,189.291550 1.000000,168.468658 
	C3.851753,177.214523 7.864108,185.779465 15.141779,192.402832 
	C17.650131,194.685684 20.417601,196.683807 23.261585,198.968552 
	C20.224455,202.537674 17.249151,206.034134 13.887272,209.958832 
	C13.183407,211.097046 12.866114,211.807053 12.548820,212.517044 
	C12.548820,212.517044 12.493715,212.511169 12.466007,212.511261 
z"/>
<path fill="#65AEF7" opacity="1.000000" stroke="none" 
	d="
M11.942063,14.142764 
	C12.825647,24.025824 20.185289,28.831064 27.415424,33.622791 
	C33.192013,37.451187 35.897083,42.710934 35.368610,49.770226 
	C31.598637,46.908295 28.258463,47.336853 24.670307,49.765739 
	C23.663359,43.370140 18.239103,41.752579 14.095844,38.890915 
	C9.975745,34.934490 5.855648,30.978065 1.367775,27.010820 
	C1.000000,23.307091 1.000000,19.614182 1.331852,15.335543 
	C4.902956,11.383476 8.335509,11.290054 11.942063,14.142764 
z"/>
<path fill="#FFFFFF" opacity="1.000000" stroke="none" 
	d="
M12.238256,13.997733 
	C8.335509,11.290054 4.902956,11.383476 1.331852,14.874907 
	C1.000000,10.361483 1.000000,5.722965 1.000000,1.000000 
	C20.354155,1.000000 39.708420,1.000000 59.531342,1.000000 
	C55.440006,1.700898 50.789223,2.044440 46.338455,3.175249 
	C36.309650,5.723274 26.379871,8.661041 16.187254,11.709492 
	C14.821291,12.603413 13.677870,13.228058 12.238256,13.997733 
z"/>
<path fill="#004DD5" opacity="1.000000" stroke="none" 
	d="
M242.130402,93.311569 
	C245.116913,93.697365 248.560822,94.367302 250.034332,91.128975 
	C251.016693,88.970016 250.872528,85.729240 250.005646,83.436531 
	C248.818237,80.296135 248.980087,78.175247 251.497986,75.942329 
	C253.344070,74.305199 254.818466,72.248932 256.729248,70.189728 
	C257.000000,73.030594 257.000000,76.061188 257.000000,79.545898 
	C253.229446,87.924843 249.458893,95.849678 245.358246,103.907318 
	C244.059738,100.595680 243.091309,97.151253 242.130402,93.311569 
z"/>
<path fill="#FFFFFF" opacity="1.000000" stroke="none" 
	d="
M1.000000,243.474121 
	C4.397566,247.612915 6.535442,253.453552 13.195724,255.343719 
	C13.508900,255.495712 13.614509,255.471527 13.822191,255.630814 
	C14.362887,255.857178 14.695900,255.924255 15.028913,255.991348 
	C15.068031,256.160706 15.107149,256.330078 15.073133,256.749725 
	C10.409401,257.000000 5.818802,257.000000 1.000000,257.000000 
	C1.000000,252.651093 1.000000,248.299683 1.000000,243.474121 
z"/>
<path fill="#99CEFA" opacity="1.000000" stroke="none" 
	d="
M55.851967,187.304718 
	C56.603054,186.816315 57.193550,186.631485 57.952660,186.177170 
	C64.664207,185.931900 71.287285,186.618469 77.732948,185.838684 
	C90.133133,184.338516 102.524574,182.448471 114.749405,179.902634 
	C127.916786,177.160522 140.368774,172.294861 151.745728,164.320862 
	C152.516953,165.559860 152.682678,166.552536 153.060303,167.456711 
	C154.821152,171.672882 157.464722,174.657150 162.474945,175.072922 
	C167.882645,175.521683 171.918854,173.719696 174.384445,168.855133 
	C176.144913,165.381775 175.245392,157.976974 172.038040,155.981918 
	C168.771820,153.950241 164.697647,153.217468 160.977234,151.915955 
	C161.441650,150.349731 161.846283,148.762726 162.382126,147.221329 
	C163.767227,143.236893 163.513489,139.820511 159.540253,137.341141 
	C160.285156,137.087311 160.789322,137.119568 161.268433,137.246414 
	C167.938309,139.012268 172.280167,137.592361 175.128098,132.698685 
	C178.264908,127.308624 177.999557,122.172279 172.440445,118.176567 
	C164.540588,112.498398 155.878754,107.852211 147.384949,103.043312 
	C144.283051,101.287125 140.730576,100.326744 137.071213,98.879753 
	C147.094925,87.124931 152.994415,74.298691 152.006241,58.960999 
	C156.011597,57.144287 160.016953,55.327572 165.757065,52.724022 
	C173.416275,58.209332 182.807831,64.935295 192.140457,71.619072 
	C186.575867,80.691940 186.170639,85.396637 190.107101,89.973053 
	C193.959061,94.451279 198.926544,94.778572 207.610046,90.984695 
	C215.718353,102.831322 220.800903,115.802238 222.108063,131.055969 
	C222.198181,133.920502 222.255341,135.938522 222.312500,137.956528 
	C221.323471,151.550827 216.952133,163.935013 208.560974,175.496887 
	C199.607590,175.704620 198.030792,177.622025 199.853622,185.946472 
	C178.899628,204.825790 153.596786,214.418076 126.345413,220.581390 
	C120.756973,221.241150 115.367859,221.594452 109.808228,221.656784 
	C115.634270,220.215500 121.728424,219.427536 127.608353,217.844086 
	C142.707458,213.777924 157.301483,208.442474 170.217484,198.698639 
	C171.969299,197.287445 173.513153,196.126358 175.418915,194.978653 
	C176.927231,194.419235 178.302170,194.083237 179.182007,193.234192 
	C183.932236,188.650299 189.091492,184.354416 193.124237,179.189743 
	C202.986008,166.560028 209.537445,152.439667 210.038422,136.034973 
	C210.156616,132.164703 208.692429,129.293152 204.664230,129.126312 
	C200.913300,128.970963 199.294159,131.525696 198.940933,135.215866 
	C197.763290,147.518616 193.707001,158.965683 186.317169,168.761337 
	C181.288040,175.427765 174.815292,181.005127 168.790955,187.313385 
	C167.187744,188.359879 165.781662,189.162476 164.020111,190.069000 
	C149.197189,198.235779 134.308853,205.181396 117.793945,208.022125 
	C116.084747,200.384903 114.297050,198.292709 110.480461,199.076660 
	C106.550423,199.883911 105.509270,203.148758 107.120789,209.611954 
	C93.864899,211.231354 92.070396,213.063461 95.991425,220.974579 
	C83.921936,217.769287 71.852448,214.563995 59.459076,211.224792 
	C54.087696,209.561096 49.475864,207.515182 47.914192,201.376526 
	C47.562435,194.874435 49.279377,189.861282 55.851967,187.304718 
M165.125458,99.004311 
	C166.307495,100.381935 167.316757,101.973480 168.705521,103.095192 
	C172.215561,105.930283 176.427719,106.635872 180.308304,104.551727 
	C183.972977,102.583527 186.979172,99.559097 187.011215,94.762558 
	C187.044342,89.802185 185.039413,85.869827 180.537186,83.892006 
	C176.427994,82.086838 171.956757,81.951683 168.363159,85.238297 
	C164.540314,88.734573 162.754608,93.036636 165.125458,99.004311 
M136.081955,186.855072 
	C139.573380,185.665802 141.677078,183.083725 140.063980,179.742493 
	C139.192032,177.936417 135.874374,176.035034 134.012878,176.338806 
	C132.121323,176.647446 129.505859,179.474365 129.267365,181.447479 
	C128.829956,185.065964 131.531708,187.023605 136.081955,186.855072 
M70.779243,203.753494 
	C69.703209,200.936676 68.114853,198.269287 64.711174,199.153229 
	C62.785519,199.653305 60.459019,201.341125 59.778801,203.070496 
	C59.199608,204.543030 60.180286,207.334457 61.413513,208.675629 
	C64.494240,212.026016 68.736511,210.031693 70.779243,203.753494 
z"/>
<path fill="#C8E5FC" opacity="1.000000" stroke="none" 
	d="
M96.207977,221.263428 
	C92.070396,213.063461 93.864899,211.231354 107.120789,209.611954 
	C105.509270,203.148758 106.550423,199.883911 110.480461,199.076660 
	C114.297050,198.292709 116.084747,200.384903 117.793945,208.022125 
	C134.308853,205.181396 149.197189,198.235779 163.918518,190.471558 
	C163.859268,195.108521 164.746506,198.590134 170.009506,198.948730 
	C157.301483,208.442474 142.707458,213.777924 127.608353,217.844086 
	C121.728424,219.427536 115.634270,220.215500 109.379028,221.639252 
	C104.888412,221.792557 100.656464,221.672409 96.207977,221.263428 
z"/>
<path fill="#016DE2" opacity="1.000000" stroke="none" 
	d="
M232.269836,162.831558 
	C228.018646,164.382065 224.086624,164.623077 222.674286,159.840240 
	C222.131699,158.002731 223.220917,154.813492 224.691971,153.527359 
	C225.862488,152.503967 228.945984,152.929001 230.801971,153.664948 
	C232.268356,154.246399 233.159683,156.278091 234.603470,157.820572 
	C234.122757,159.543060 233.344971,161.110687 232.269836,162.831558 
z"/>
<path fill="#65AEF7" opacity="1.000000" stroke="none" 
	d="
M152.028778,58.512970 
	C152.994415,74.298691 147.094925,87.124931 137.071213,98.879753 
	C140.730576,100.326744 144.283051,101.287125 147.384949,103.043312 
	C155.878754,107.852211 164.540588,112.498398 172.440445,118.176567 
	C177.999557,122.172279 178.264908,127.308624 175.128098,132.698685 
	C172.280167,137.592361 167.938309,139.012268 161.268433,137.246414 
	C160.789322,137.119568 160.285156,137.087311 159.376694,137.019043 
	C142.022400,124.579865 123.377998,117.183128 101.574455,117.743538 
	C100.588478,116.903709 100.208313,115.927155 99.500984,115.355194 
	C91.383293,108.791023 92.197327,99.593964 101.342751,94.844116 
	C102.498009,94.244102 103.566963,93.477905 105.231552,92.449417 
	C107.745407,91.250412 109.908516,90.684402 111.629097,89.484077 
	C124.364655,80.599403 130.549911,68.615211 128.835999,52.964474 
	C132.406937,57.527023 136.642303,60.144695 142.264465,58.677696 
	C147.535095,57.302418 150.579742,53.640617 151.041687,48.064526 
	C151.378220,51.397999 151.714767,54.731468 152.028778,58.512970 
z"/>
<path fill="#65AEF7" opacity="1.000000" stroke="none" 
	d="
M160.657257,152.061646 
	C164.697647,153.217468 168.771820,153.950241 172.038040,155.981918 
	C175.245392,157.976974 176.144913,165.381775 174.384445,168.855133 
	C171.918854,173.719696 167.882645,175.521683 162.474945,175.072922 
	C157.464722,174.657150 154.821152,171.672882 153.060303,167.456711 
	C152.682678,166.552536 152.516953,165.559860 152.092972,164.270981 
	C151.930771,158.015945 155.114822,154.381134 160.657257,152.061646 
z"/>
<path fill="#158CE5" opacity="1.000000" stroke="none" 
	d="
M15.668917,141.475082 
	C15.999352,144.618500 15.999352,147.851120 15.999352,151.700317 
	C12.344296,152.095566 8.056701,152.559204 3.320655,153.038986 
	C4.954948,146.976212 9.581192,143.656723 15.668917,141.475082 
z"/>
<path fill="#016DE2" opacity="1.000000" stroke="none" 
	d="
M151.020325,47.648811 
	C150.579742,53.640617 147.535095,57.302418 142.264465,58.677696 
	C136.642303,60.144695 132.406937,57.527023 128.813202,52.564011 
	C127.920036,50.071686 127.360924,48.063942 126.801804,46.056202 
	C125.387222,42.485260 123.972641,38.914318 122.287979,35.118362 
	C121.276489,33.436520 120.567017,31.962372 119.788025,30.525930 
	C116.788696,24.995216 117.674240,18.982967 122.006363,15.628662 
	C126.959770,11.793296 132.981857,12.245344 137.659973,17.240335 
	C144.055359,24.068930 147.184860,32.663574 149.880661,41.408604 
	C150.459595,43.286549 150.636734,45.288353 151.020325,47.648811 
z"/>
<path fill="#006CE2" opacity="1.000000" stroke="none" 
	d="
M175.998444,48.750664 
	C175.384735,42.734642 178.013367,39.168636 182.990097,36.979630 
	C187.298340,35.084641 191.015015,36.065128 194.488571,38.966667 
	C198.526001,42.339222 199.470123,46.530109 197.950623,51.407215 
	C196.612946,55.700737 190.909012,59.356564 186.215546,58.981285 
	C180.824280,58.550209 177.200424,55.069374 175.998444,48.750664 
z"/>
<path fill="#031789" opacity="1.000000" stroke="none" 
	d="
M69.568710,18.879425 
	C71.305466,24.556808 71.062607,29.634529 66.057877,33.417164 
	C62.407242,36.176357 58.337223,36.646351 54.307251,34.657639 
	C49.506275,32.288452 47.268185,28.245485 48.332031,22.462730 
	C51.666992,24.431746 54.733944,25.216930 57.519444,22.166632 
	C60.567863,18.828411 58.853027,15.836804 56.319649,13.086850 
	C61.836578,12.201755 66.305679,13.731532 69.568710,18.879425 
z"/>
<path fill="#006CE2" opacity="1.000000" stroke="none" 
	d="
M222.661041,138.030334 
	C222.255341,135.938522 222.198181,133.920502 222.208466,131.474213 
	C223.190338,130.689774 224.160706,130.433685 225.009018,129.959320 
	C227.919846,128.331635 230.892944,128.740967 232.342102,131.424286 
	C233.273651,133.149139 233.213287,137.009933 232.057755,137.888733 
	C230.300079,139.225494 227.212509,138.874725 224.676697,139.077148 
	C224.150238,139.119156 223.566772,138.447098 222.661041,138.030334 
z"/>
<path fill="#016DE2" opacity="1.000000" stroke="none" 
	d="
M200.254181,185.998627 
	C198.030792,177.622025 199.607590,175.704620 208.494171,175.828003 
	C209.052582,176.359848 209.332001,177.007263 209.320480,177.649475 
	C209.275040,180.186005 210.087906,184.028305 208.814972,184.952850 
	C206.860245,186.372604 203.448288,185.785995 200.254181,185.998627 
z"/>
<path fill="#006CE2" opacity="1.000000" stroke="none" 
	d="
M199.090668,75.377777 
	C200.575378,73.685081 202.146255,71.194786 203.394714,71.347122 
	C205.615967,71.618134 208.779175,73.063148 209.433014,74.809235 
	C210.099915,76.590240 208.703476,80.858826 207.343948,81.286964 
	C205.236343,81.950684 202.282990,80.523697 199.929916,79.452301 
	C199.219070,79.128647 199.308640,77.047081 199.090668,75.377777 
z"/>
<path fill="#45A1F0" opacity="1.000000" stroke="none" 
	d="
M55.890503,13.062111 
	C58.853027,15.836804 60.567863,18.828411 57.519444,22.166632 
	C54.733944,25.216930 51.666992,24.431746 48.390701,22.035870 
	C47.989525,19.992159 47.946758,18.043930 47.838657,15.691021 
	C50.336002,14.536686 52.898682,13.787029 55.890503,13.062111 
z"/>
<path fill="#014ED6" opacity="1.000000" stroke="none" 
	d="
M186.562836,13.083225 
	C183.529800,16.340700 180.091034,19.525957 176.356934,22.852329 
	C173.156906,21.570698 170.252228,20.147951 167.166779,18.441599 
	C173.376373,16.442331 179.766739,14.726669 186.562836,13.083225 
z"/>
<path fill="#C7E4FC" opacity="1.000000" stroke="none" 
	d="
M126.431763,46.036842 
	C127.360924,48.063942 127.920036,50.071686 128.501953,52.479889 
	C130.549911,68.615211 124.364655,80.599403 111.629097,89.484077 
	C109.908516,90.684402 107.745407,91.250412 105.418114,92.170036 
	C99.107841,86.873978 99.234100,84.314713 105.756699,79.566147 
	C113.326996,74.054832 117.826073,67.026321 117.024551,57.281296 
	C116.902618,55.798801 116.987656,54.298435 116.993774,52.806408 
	C117.020454,46.303860 119.606247,44.370018 126.431763,46.036842 
z"/>
<path fill="#DFEAFC" opacity="1.000000" stroke="none" 
	d="
M50.246368,88.927933 
	C46.233509,86.533669 42.474895,84.398949 38.983879,81.891632 
	C35.944126,79.708427 34.714291,76.689079 37.246365,73.329323 
	C39.809769,69.927994 43.126183,70.294487 45.991524,72.701576 
	C54.066292,79.484940 63.697441,81.334183 73.763290,82.054276 
	C74.910820,82.136368 76.052689,82.366074 77.184067,82.592812 
	C80.634346,83.284271 82.443573,85.255463 82.018959,88.919952 
	C81.593460,92.592117 79.256569,94.473343 75.865837,93.913887 
	C67.410835,92.518837 59.028408,90.683952 50.246368,88.927933 
z"/>
<path fill="#C8E4FC" opacity="1.000000" stroke="none" 
	d="
M13.683693,38.920128 
	C18.239103,41.752579 23.663359,43.370140 24.604763,50.192085 
	C24.504690,57.445187 26.209066,59.118561 32.987923,58.912167 
	C33.253235,59.679295 33.706425,60.436161 33.749008,61.215458 
	C33.882389,63.656624 34.852528,67.064728 33.648682,68.310112 
	C32.141903,69.868881 28.530918,70.636856 26.298695,70.026253 
	C18.500309,67.893097 13.360484,63.069344 12.848302,54.303635 
	C12.762213,52.830261 10.945385,51.498718 10.061688,50.021797 
	C8.701630,47.748737 6.270249,45.312733 6.443972,43.115929 
	C6.699141,39.889221 9.884366,38.585152 13.683693,38.920128 
z"/>
<path fill="#046FE3" opacity="1.000000" stroke="none" 
	d="
M33.131359,58.593491 
	C26.209066,59.118561 24.504690,57.445187 24.855267,50.436760 
	C28.258463,47.336853 31.598637,46.908295 35.238998,50.188587 
	C34.781757,53.010273 34.028275,55.642544 33.131359,58.593491 
z"/>
<path fill="#66AFF7" opacity="1.000000" stroke="none" 
	d="
M81.739883,55.401852 
	C79.891327,58.976009 76.945923,60.209499 74.200668,58.191120 
	C72.516937,56.953197 70.882652,53.150372 71.615097,51.739735 
	C72.587006,49.867889 75.912262,48.196735 78.185951,48.247452 
	C82.177422,48.336487 82.273849,51.834164 81.739883,55.401852 
z"/>
<path fill="#0E87E3" opacity="1.000000" stroke="none" 
	d="
M12.857252,212.584747 
	C12.866114,211.807053 13.183407,211.097046 13.777731,210.283356 
	C14.054764,210.179672 14.063424,210.668716 14.099411,210.911774 
	C13.812159,211.654037 13.488921,212.153244 12.857252,212.584747 
z"/>
<path fill="#0E87E3" opacity="1.000000" stroke="none" 
	d="
M14.888613,255.746750 
	C14.695900,255.924255 14.362887,255.857178 13.864998,255.597626 
	C14.049520,255.437485 14.398916,255.469818 14.888613,255.746750 
z"/>
<path fill="#C8E4FC" opacity="1.000000" stroke="none" 
	d="
M168.988083,187.069489 
	C174.815292,181.005127 181.288040,175.427765 186.317169,168.761337 
	C193.707001,158.965683 197.763290,147.518616 198.940933,135.215866 
	C199.294159,131.525696 200.913300,128.970963 204.664230,129.126312 
	C208.692429,129.293152 210.156616,132.164703 210.038422,136.034973 
	C209.537445,152.439667 202.986008,166.560028 193.124237,179.189743 
	C189.091492,184.354416 183.932236,188.650299 179.182007,193.234192 
	C178.302170,194.083237 176.927231,194.419235 175.434845,194.577087 
	C175.904495,189.347137 172.535416,188.131653 168.988083,187.069489 
z"/>
<path fill="#E0EAFC" opacity="1.000000" stroke="none" 
	d="
M165.024261,98.625977 
	C162.754608,93.036636 164.540314,88.734573 168.363159,85.238297 
	C171.956757,81.951683 176.427994,82.086838 180.537186,83.892006 
	C185.039413,85.869827 187.044342,89.802185 187.011215,94.762558 
	C186.979172,99.559097 183.972977,102.583527 180.308304,104.551727 
	C176.427719,106.635872 172.215561,105.930283 168.705521,103.095192 
	C167.316757,101.973480 166.307495,100.381935 165.024261,98.625977 
z"/>
<path fill="#C7E4FC" opacity="1.000000" stroke="none" 
	d="
M135.696686,186.910294 
	C131.531708,187.023605 128.829956,185.065964 129.267365,181.447479 
	C129.505859,179.474365 132.121323,176.647446 134.012878,176.338806 
	C135.874374,176.035034 139.192032,177.936417 140.063980,179.742493 
	C141.677078,183.083725 139.573380,185.665802 135.696686,186.910294 
z"/>
<path fill="#66AFF7" opacity="1.000000" stroke="none" 
	d="
M70.828377,204.128616 
	C68.736511,210.031693 64.494240,212.026016 61.413513,208.675629 
	C60.180286,207.334457 59.199608,204.543030 59.778801,203.070496 
	C60.459019,201.341125 62.785519,199.653305 64.711174,199.153229 
	C68.114853,198.269287 69.703209,200.936676 70.828377,204.128616 
z"/>
<path fill="#66AFF7" opacity="1.000000" stroke="none" 
	d="
M168.790955,187.313385 
	C172.535416,188.131653 175.904495,189.347137 175.072952,194.563690 
	C173.513153,196.126358 171.969299,197.287445 170.217484,198.698639 
	C164.746506,198.590134 163.859268,195.108521 164.273987,190.367615 
	C165.781662,189.162476 167.187744,188.359879 168.790955,187.313385 
z"/>
</svg>